<?xml version="1.0" encoding="utf-8"?>
<!-- Generator: Adobe Illustrator 21.0.2, SVG Export Plug-In . SVG Version: 6.00 Build 0)  -->
<svg version="1.1" id="Layer_1" xmlns="http://www.w3.org/2000/svg" xmlns:xlink="http://www.w3.org/1999/xlink" x="0px" y="0px"
	 viewBox="0 0 3050.3 1714.9" style="enable-background:new 0 0 3050.3 1714.9;" xml:space="preserve">
<style type="text/css">
	.st0{fill:url(#SVGID_1_);}
	.st1{fill:url(#SVGID_2_);}
	.st2{fill:url(#SVGID_3_);}
	.st3{fill:url(#SVGID_4_);}
	.st4{fill:url(#SVGID_5_);}
	.st5{fill:url(#SVGID_6_);}
	.st6{fill:url(#SVGID_7_);}
	.st7{fill:url(#SVGID_8_);}
	.st8{fill:url(#SVGID_9_);}
	.st9{fill:url(#SVGID_10_);}
	.st10{fill:url(#SVGID_11_);}
	.st11{fill:url(#SVGID_12_);}
	.st12{fill:url(#SVGID_13_);}
	.st13{fill:url(#SVGID_14_);}
	.st14{fill:url(#SVGID_15_);}
	.st15{fill:url(#SVGID_16_);}
	.st16{fill:url(#SVGID_17_);}
	.st17{fill:url(#SVGID_18_);}
	.st18{fill:url(#SVGID_19_);}
	.st19{fill:url(#SVGID_20_);}
	.st20{fill:url(#SVGID_21_);}
	.st21{fill:url(#SVGID_22_);}
	.st22{fill:url(#SVGID_23_);}
	.st23{fill:url(#SVGID_24_);}
	.st24{fill:url(#SVGID_25_);}
	.st25{fill:url(#SVGID_26_);}
	.st26{fill:url(#SVGID_27_);}
	.st27{fill:url(#SVGID_28_);}
	.st28{fill:url(#SVGID_29_);}
	.st29{fill:url(#SVGID_30_);}
	.st30{fill:url(#SVGID_31_);}
	.st31{fill:url(#SVGID_32_);}
	.st32{fill:url(#SVGID_33_);}
	.st33{fill:url(#SVGID_34_);}
</style>
<g>
	
		<linearGradient id="SVGID_1_" gradientUnits="userSpaceOnUse" x1="-143.7086" y1="969.5856" x2="524.569" y2="1110.5149" gradientTransform="matrix(0.9875 0.1579 -0.1579 0.9875 174.0179 -108.297)">
		<stop  offset="0" style="stop-color:#917240"/>
		<stop  offset="1" style="stop-color:#DAB587"/>
	</linearGradient>
	<path class="st0" d="M184,944.9c0,0,0.9-0.4,3.4-1.6l0,0C186,943.9,185.2,944.3,184,944.9z"/>
	
		<linearGradient id="SVGID_2_" gradientUnits="userSpaceOnUse" x1="-136.8559" y1="937.0903" x2="531.4218" y2="1078.0197" gradientTransform="matrix(0.9875 0.1579 -0.1579 0.9875 174.0179 -108.297)">
		<stop  offset="0" style="stop-color:#917240"/>
		<stop  offset="1" style="stop-color:#DAB587"/>
	</linearGradient>
	<path class="st1" d="M2288.6,676.3c-3.2-6.6-6.4-13.5-9.2-20.2c-4.8-4.5-10-8.7-15.2-12.8c-11.1-8.7-23.2-15.3-32-26.5
		c-2.2-2.7-4.2-5.1-6.2-7.6c-4.3-2.8-8.7-5.3-13.1-7.7c-10.9-6-21.2-7.8-33.6-6.2c-11.1,1.4-21.4,3.5-32.6,2.2
		c-3.1-0.2-4.9-2.4-5.3-4.8c-7.2,2-14.2,4.6-20.8,7.8c-4.8,2.4-10.4-2.7-9.6-7.6c0.2-1,0.1-2.3-0.2-3.8c-0.8,0.2-1.7,0.2-2.4,0.1
		c-1.5-0.5-3.1-0.5-4.7-0.2c-3.2,0.5-6.7,0.8-10,1.3c-3.3,2.4-7.5,3.9-11.6,4.7c-15.9,4-32.9,0.3-48.6-2.2c-2.1-0.3-3.5-1.4-4.6-2.9
		c-20.3-3.3-40.6-9.1-59.1-18.7c-1.8-0.3-3.7-0.6-5.4-1.4c-21.8-10.6-41.7-25.2-64.1-34.1c-34.5,4.3-65.4,24.2-99.6,29.5
		c-6.1,2-12.3,3.8-18.3,5.6c-9.4,2.4-16.2-1.6-19.9-7.9c-26.3,9.6-53.5,12.3-80.7-1.6c-6.8-3.4-9.7-8.9-9.3-14.8
		c-4-1.7-7.6-3.5-11.7-5c-13.5,5.2-29.9,6.6-41.9-0.6c-17.6-2.5-35.1-7.2-52.2-12.3c-17.9-5.2-37.8-15.1-56.4-15.9
		c-19.2-0.7-55.7,14.6-67.9-5.1c-5.3-1.7-10.7-3.8-15.8-6.8c-0.7-0.4-1.5-1-1.9-1.6c-5.1,0-10-0.3-14.7-0.2
		c-23,22.8-62.9,6.4-92.2,1.4c-1-0.2-2-0.6-2.8-1c-7.7,0.1-15.1,0.2-22.7,0.1c7.1-11.3,17.1-20.6,27.7-29.2
		c7.5-12.3,20.4-19.7,31.3-28.6c17.6-14.4,24.2-34.4,27.7-56.3c0.9-5.4,6.4-6.9,10.3-4.7c1.8-1.3,4-1.7,6.5-0.8
		c0.7,0.4,1.5,0.5,2.5,0.9l0.1-0.7c13.3,6.4,26.9,12.2,40.5,17.6c9.4-1.4,18.3-1.8,28,1.3c5.3,1.7,10.3,3.5,15.2,5.4
		c23.8-5.2,45.2-0.2,69.5,4.7c13.4,2.6,26.4,5.5,38.4,11.2c8,1,15.9,2.9,23.4,5.9c1.6-1.6,2.9-3.5,4-5.1c-5.2-5.6-10-11.4-14.1-17.5
		c-4.5-1.7-9-3.6-13.3-5.9c-0.4-0.4-1.2-0.7-1.7-1.1c-9.5-2.3-18.8-4.6-28.5-6.9l-9-1.4c-1.6-0.3-2.8-1-3.6-1.9
		c-1.8,0-3.7-0.1-5.7-0.4c-16.9-1.9-12.7-28.2,4.2-26.3c1.6,0.3,3.1,0,4.8-0.2l0.5-3.4c0.2-1.3,0.7-2.5,1.1-3.6
		c-4.1-2.3-8.1-3.6-12.2-4.9c-5,1.3-10,2.9-15,4.5c-7.6,6.7-15.3,16.3-25.1,19.5c-10.6,3.4-21.8-2.7-31-7.6
		c-12.8,0.6-25.6,0.2-37.8-1.8c-13.2-1.8-28.6-5.9-38.8-15.2c-5.8-1.4-11.6-3.7-16.9-7c-0.9-0.5-1.6-1.3-2-1.9
		c-6.3,1.6-12.3,4.1-17.8,7.2c-2.6,11.4-6.6,21.9-11.8,32.4c-10.4,21.8-23.7,39.1-45.6,50.3c-0.6,0.4-1.1,0.6-1.9,0.7
		c-8.9,9.4-18,18.5-27.3,27.1c-20.4,18.9-46.5,36.2-74.5,41c-11.7-0.9-23.2-1.6-35-3c-29.4-3.1-58.4-8.5-86.7-16.5
		c0-0.3,0-0.3-0.2-0.5c-13.1-1.1-26.1-3.9-38.7-7.8c-21.3-2.6-42.3-6.5-62.3-15.7c-0.7-0.4-1.5-0.7-2.1-1.4
		c-30-2.5-60.1-4.3-89.8-9.3c-28.7,1-57.6,2.9-86.5,4.9c-20.8,8.8-41.8,16.8-63.1,24c-3.9,1-8,1.9-11.8,2.6
		c-49,10.9-99.4,18.2-147.9,31.7c-9.6,2.7-19.1,5.7-28.4,8.9c-14.4,2.8-28.7,5.7-43,9.2c25.5-38.5,50.1-77.4,74.4-116.6
		c2.8-4.3,5.3-8.7,8.2-13.3c1.9-5.8,4.4-11.1,7.4-16.2c6.2-20.4,19.1-36.3,32.5-52.4c3.5-8.5,7-16.1,11.2-23.6
		c9.5-8.3,19-16.3,29-24.2c14.3-11.5,29.4-22,46.2-28.1c0.3,0,0.5,0.1,0.8,0.1l0-0.3c7-2.6,14.7-4.2,22.5-4.9c2.2-0.2,3.6-1,4.3-2.4
		c5.9-0.7,11.8-1,17.8-0.3c1.7-0.2,3.2-0.3,5.1,0c6.4,1.3,12.8,2.9,19.1,4.9c14.5-1.1,29.3-1.4,44-0.9c-0.2-0.8,0-1.8,0.1-2.6
		l-38.3-8.8c24.7-5.9,49.5-12.1,74.7-15.8c0,0,0,0,0.3,0c0.5-1.2,1.6-2.1,3.3-2.4c15.7-2.3,30.6-1.7,45.6,1.2
		c23,2.1,45.5,8.3,66.3,18.8c4.9,2.4,9.5,5,14,7.8c22.5,6.2,34.7,27.7,51.2,43.1c13.2,11.9,31.2,18.3,47.2,25.6
		c5.4,2.5,11.1,4.9,16.8,7.5c13.1-4,25.7-8.6,38.4-13.4c-2.7-1.4-5.6-3-8.3-4.8c-6.4,1.9-12.9,3-19.3,1.7c-1.8-0.3-2.7-1.4-3-2.8
		c-4.3,0.1-8.5,0-12.5-0.7c-20-2.4-32.4-13.7-44.8-27.8c-3.5-1.6-6.5-3.4-9.7-5.5c-0.3,0-0.3,0-0.5-0.1
		c-11.6-1.6-16.8-10.6-22.5-19.5c-0.7-0.6-1.4-1.2-2.3-2c-7.9-6.8-16.5-12.5-24.8-18.7c-5.4-4-10.5-8.3-15.7-12.3
		c-43.5-6.1-85.9-15-130.4-12.6c-25,1.3-48.1,6.1-71.4,15.3c-22.8,8.8-40.9,6.4-64.6,2.3c-2.6-0.4-3.5-2.7-3.2-4.5
		c-7.6-1.7-15.3-3.5-23-5c-14.2,2.5-28.5,4.7-41.4,12.4c-13.1,7.9-24.5,14.8-39.3,14.4c-4.8,3.7-9.7,7.7-14.1,12
		c-5.5,16.3-15.8,31.3-25.6,45.8c-6.7,23.2-18.5,44.8-30.4,65.7c-0.7,1.2-1.2,2.1-1.9,3.4c-22.6,48.7-46.1,98.2-88.2,130
		c-36,46.6-75.2,90.6-115.7,133.2c-0.3,0.2-0.9,0.4-1.1,0.3c-11.5,9.3-24.1,17.3-37,24.8c-12.6,9.3-25.1,18.5-38,27.5
		C157.3,757.6,63.5,838-21.1,927.6c-19.9,38-42.9,73.5-73.3,103c-66.2,104.7-137.8,210.6-253,265.2c-0.9,0.4-1.7,0.7-2.3,1
		c-105,68.4-223.6,115.4-349.3,137.4c-25.3,4.5-48.8,7.8-74.5,7.9c-8.2,0-16.4-0.3-24.7-0.8c-16.2,52.1-32.8,104.2-50.5,155.8
		l373.1,115.1c156.4-133.1,296.2-285.2,416.2-451.9c23.8-33,46.5-66.3,68.4-100.4c34.5-42.3,67.7-85.9,98.4-131
		c7.6-11.2,15.3-22.7,23.4-33.5c4-5.4,8.1-10.6,12.1-16.1c0.6-0.7,1-1.5,1.3-1.9c0.4-0.4,0.9-0.9,1.6-1.6c2.6-2.7,5.2-5.8,7.9-8.6
		c4.5-4.6,9.3-8.8,14.2-13c1.1-0.8,11.2-7.4,3-2.5c2-1.3,4.2-2.8,6.4-4c2-1.3,4.3-2.2,6.6-3.4c0,0,1.8-1.3,3.4-1.6c0,0,0,0,0.3,0
		c3.6-1,7.4-2,11.3-2.7c1.4-0.3,2.4-0.4,3.2-0.5c1.3-0.1,2.4-0.1,3.8-0.2c7.7,0.2,15.2,0.6,23,1.6c1.3,0.2,2.3,0.4,3.1,0.2
		c0.8,0.1,2,0.6,3.6,0.9c3.8,0.9,7.7,1.5,11.8,2.4c18.7,4,37.6,8.3,56,13.2c7.1,1.9,14.2,3.9,21.3,5.7c17.8,9.9,37.4,15.5,57.9,16.6
		c3.4,1.9,6.5,3.7,10,5.3c4.1,7.5,8.4,15.3,12.4,23.1c-0.3,1.6,0,3.1,0.5,5.1c8.7,29.6,22.7,58.1,35.4,86.6c0.7,2.2,1.6,4.5,2.7,6.5
		c0.2,0.5,0.7,0.9,0.8,1.4c0.4,0.9,0.7,1.7,1.2,2.5c0.6,1.4,1.2,2.5,2.1,3.5c1,1.8,2.1,3.5,3.1,5.3c4,15.9,10.1,31.2,20.2,45.6
		c12.1,17,27.5,31.1,44,44l0.8,1.1c2.8,3.9,6,5.7,9.3,6.5c9.7,7.1,19.4,13.9,28.9,20.7c36.1,25.8,68,55.8,95.8,90.4
		c0.9-8.6,1.7-17.1,2.3-25.8c-1.1-3.3-2.4-6.5-3.7-9.8c-11.4-12.7-23.5-24.9-36.2-36.5c-22.6-12.8-43.5-28.6-62.5-45.6
		c-16.4-14.8-35.3-33.7-45.3-55.3c2.5-17.6-4.3-35.8-18.1-46.8l-18.6-46.8c-1-4.9-2.2-9.9-3.7-14.6c-1-13.1-2.4-26-5.7-38.7
		c45.5,18.1,88,37.9,131.8,61.8c60.4,45.1,92.3,120.8,148.7,170.7c74.1,65.5,172.3,81.5,258,125.6c18.4,9.3,36.2,20.1,52.3,33.2
		c13.5,5.1,26.8,11.2,39.4,18.4c20.6,12,38.5,28.6,57,44c0.6-6.8,1.7-13.5,3.2-20.1c-20.2-15.7-37.5-34.9-50.5-58
		c-2.9-5.2-3.1-10.3-1.6-14.8c-4.4-4.1-8.7-8-13.2-11.6c-42.6-9.5-82.1-23.5-111.8-58.3c-1.5-1.9-2.6-3.6-3.4-5.6
		c-18.2-7.2-36.4-13.7-54.3-20.5c-44.1-16.6-88.1-33.9-125.9-62.7c-16.7-12.7-31.4-28.3-44.9-44.9c20,13.7,40.8,29,64,34.5
		c19.9,4.8,41,8.4,61.9,8.3c5.6,0.9,11.1,1.5,16.9,1.9c19.1,5.7,38.2,12.7,57.1,19.5c9.8,0,19.6-0.3,29.1-0.4
		c16.1-9.6,35.4-14.7,53.6-17.9c20.7-3.8,43-5.8,64.2-3c13.8-2,27.8-3.5,41.7-4.5c31.3-14,64.5-21.7,99.5-15.6
		c13.4,2.1,26.5,6.1,39.3,10.5c3.5-0.3,6.7-0.8,10-1.3c23.3-11.9,49.1-16.5,75.1-18.4c7.6-6.5,14.4-14.1,20.2-22.7
		c1.4-2.1,2.5-4.4,3.4-6.5c-7.2-1.2-14.4-2.6-21.1-5.2c-2.8-1-5.2-2.2-7.7-3.4c-10.7,0.9-21.2,2.2-32,3.1
		c-15.5,1.5-31.7,1.3-47.3,1.4c-20.1,0.2-40.2-1.2-58.4-10.3c-0.9-0.5-1.6-1.3-2.3-2c-10.5,1-21,1.9-31.2,2.1
		c-1.6,0-3.1-0.5-4.3-1.2c6.2-6.1,12.7-11.9,20-17.2c14.5-7.7,28.5-16.3,42.8-24.6c69.8-39.9,149.7-58.3,229.6-55.5
		c12.5-5.4,25.4-9.7,39.1-8.5c10.5-1.3,20.7,1.2,31.9,4.1c18.6,4.6,37.2,10.7,54.7,18c6.6,2.9,13.3,5.9,19.6,9.7
		c9.4,6,17.9,13.7,29.2,15.5c2.1,0.3,3.5,1.4,4.4,2.5c1.6,0.3,2.8,0.8,4.3,1.2c23.1,6.3,43.4,19.1,63.5,33.1
		c7.1,2.1,14.3,5.2,21.5,9.5c7,4.1,13.9,8.8,20.5,13.8c9.4,3.8,19.2,7.5,28.6,11c26.7,1.3,53.1-1.3,77.5-13.5c0-0.3-0.2-0.3-0.2-0.5
		c-7-2.4-14.5-3.9-21.7-6.4c-1.5-0.5-3-1-4.2-1.7c-0.8,0.2-1.3,0.1-2.3-0.1c-37.2-6.5-70.6-24.8-95.9-53.1c-0.2-0.3-0.4-0.6-0.7-0.9
		c-14.7-8.7-29.2-17.6-43.6-26.5c-1.2,1.1-2.9,1.7-5,1.3c-9.8-1.6-19-3.5-26.6-10.3c-6.9-6.2-10.1-15.9-16.9-21.7
		c-6.1-1.5-12.1-3.3-18.2-5c-0.9,0.4-1.9,0.5-3.2,0.3c-17.2-3.1-34.8-2.4-51.6-7.9c-18.9-6.2-35.9-16.6-54.8-22.7
		c-13.7-1.9-27.6-3.1-41.4-3.7c-4.8,0-9.5,0.1-14,0.4c-36.9,17.4-79.2,31-117.4,21.4c0,0,0,0-0.3,0c-23,4.8-45.8,8.6-69.4,9.3
		c-17.5,6.7-34.5,14.3-50.9,22.7c-20.7,10.7-40.3,23.9-61,34.7c-17.9,14.4-37.6,29.9-58.2,43.6c-1,0.1-2.2,0.5-3.3,1.1
		c-25.8,12.8-53.1,23-81.1,29.6c-1.3,0.1-2.6,0.1-4,0.2c-1.9,0.7-4,1.5-5.6,2c-18.6,3.6-37.7,4.8-56.2,9.2c-0.3,0-0.5-0.1-0.8-0.1
		c-1,0.1-2.4,0.1-3.5,0.3c-0.3,0.2-0.9,0.4-1.1,0.6c-51.1,24-91.9-13.4-133.1-47.2c-22.6-12.3-45.6-26.8-68.4-41.8
		c-0.5-0.1-1-0.2-1.5-0.5c-11.2-10.8-22.3-21-37.6-24.7c-8.4-5.3-16.8-10.6-24.9-15.6c-1.3,0.1-2.9-0.2-4.3-0.7
		c-39.7-12.7-77.4-33.2-109.6-60.1c-90.1-43.3-185.9-77.3-283.4-97.2c14.2-9.4,28.1-18.5,42.1-28.2c30.2-20.6,60-41.6,88.8-64.3
		c28.2-22.2,53.9-46.7,81.4-69.4c12.5-10.7,24.3-19.9,35.2-26.9c4.3-0.3,8-2.2,11.2-4.3c17.7,3.1,33.8,11.8,49.1,21.3
		c18.3,4.7,36.7,13.6,53.3,24.9c15.3,3.5,29.9,9.8,39.6,21.4c10.2,2.1,20.9,3,31.8,2.5c1.3-0.1,2.6-0.1,3.8-0.2
		c15.8-11.4,35.4-15.2,55.2-12.5l1.8,0.3c19.3-4.8,39.5-11.1,59.3-10.6c4.2-3.1,9.2-4.3,14-3c22.8,6.3,45,14.1,66.9,22.9
		c1.3-0.1,2.6-0.1,3.9,0.1c47.6,5.3,87.7,31.4,129.7,51.9c3.9-0.7,7.7-1.7,11.3-2.7c-0.3-1.1-1-2.3-1.8-3.4
		c-22.7-21.6-51.5-33-80.6-43.1c-29.2-10.2-57.2-21-83.3-37.6c1.9-0.7,4.2-1.7,6.2-2.5c0.3-0.2,0.4-0.7,0.9-0.9
		c0.9-0.4,1.4-0.8,2.3-1.2c0.4-0.4,0.9-0.9,1.5-1.4c3.8-2,7.1-4.6,10.9-6.5l0,0c9.8-4.8,19-10.9,27.4-17.6c1.2-1.1,2.1-2,3.4-3.2
		c0,0,0-0.3,0.3-0.2c2.7-3.5,6.6-6.3,10-9.2c1.2-1.1,2.7-2.5,4-3.6c1.9-1.8,3.8-3.9,5.7-5.7c0.7-1.2,1.6-2.1,2.6-3
		c6.7-6,16.1-5.1,23.5-1c0.5,0.1,0.9,0.5,1.5,0.5c3.6,1.1,6.6,3.2,9.4,5.8c1.5,1,2.9,1.8,4.3,2.8c2.5,0.9,4.9,2.1,7.1,3.8
		c0.7,0.4,1.5,0.7,2.4,1.2c6.7,2.4,12.5,6.2,18.2,10.6c6.5,2.4,12,6.2,17.9,10.3c4,2.8,8.2,5.3,12.2,7.7c9.2,4.1,18.3,7.7,27.6,11.3
		c21.2,8.1,42.3,16.6,63.9,23.7c8.6,0.6,16.7,4.8,25.2,5.7c6.5,0.7,12.8-0.9,19.3,0.2c1.3,0.2,2.5,0.7,3.8,1.1
		c39.6,10.1,80.2,17.9,120.4,25.6c3.1,0.5,5.2-0.8,6.2-3c-0.4-0.4-1.2-0.7-1.6-1.3c-11.5-4.2-22.6-9.4-33.9-14.4
		c-35.1-5.3-70.4-12.6-101.3-29.5c-4.9-1.3-9.6-2.8-14.5-3.6c-8.9-1.7-18.1-2.9-27-4.8c-16.8-3.7-31.4-13.7-47.3-20.2
		c-1.2-0.5-2.1-1.4-2.6-2.2c-9.7-3.7-19.6-6.6-29.2-10.2c-9.2-3.6-17.5-9.9-26.2-14.7c-2.8-1-5.2-2.2-7.9-3.6
		c-0.4-0.4-0.7-0.4-1.2-0.7l0,0c-0.7-0.4-1.2-0.7-1.7-1.1c-2.1-1.4-4.3-3-6.4-4.5c-16.2-4.7-29.2-14.2-28.8-31.3
		c-4.9-2.4-10-3.4-15.4-4.6c-0.9,0.4-1.4,0.8-2.3,1.2c-8.5,25.6-41.8,41.4-63.8,52.2c-1.4,0.8-2.8,0.9-4.1,0.7l-0.3,0.2
		c-13.5,8.7-26.6,12.2-41.1,14.1c-7.8-0.7-15.8-0.7-23.3,0.2c-0.9,0.4-1.4,0.6-2.3,1c-11.1,4.6-22.5,8.3-34,11
		c-26.9,6.2-54.2,11.4-80.9,18.3c-22.9,5.9-41.3,6.7-63.3-2.2c-23.1-9.3-44.7-18-62.4-35.9c-0.7-0.6-1.1-1.5-1.5-2.1
		c-0.9-0.7-1.9-1.3-2.8-2.1l-1.8-0.3l-13.3-4.3c-6.3-1.8-9.9-7.7-9.7-13.7c8.2-2.1,15.9-5.4,23.2-9.8c7.8-2.7,14.9-6.8,22.1-11
		c16.6-9.2,33.6-17.9,50.9-25.7c19.4-5.4,38.4-12.1,57.8-17.5c0.3,0,0.5,0.1,0.8-0.2s0.8-0.2,1.1-0.3c3.1-1.1,6-1.2,8.9-0.9l0.3,0
		c24.7-3.9,47.4-15.1,72.1-19.7c2.7-0.6,5.7-0.9,8.4-1.3c37.8-17.8,76.9-31.1,120.4-29.4c3.2-0.5,6.3-1.3,9.5-1.9
		c3.9-0.7,7.6-1.4,11.4-1.9c-0.3,0,9.7-1.1,8.7-0.9c16.3-1.3,32.9-0.8,49.3,0.8c1.6,0.3,3.1,0.2,4.4,0.2
		c141,49.5,293.8,23.7,441.2,33.3c6.8-1.5,13.8-2.2,21.5-1.8c11.5,0.8,22.7,3.9,33.8,7.2c30.2,4.3,60.3,11,89.1,21.3
		c1.4,2.9,3.4,5.3,5.4,7.4c9.8,3.2,19.6,6.9,29.9,9.8c31.1,8.9,62.9,9.8,86,32.8c0.9,0.7,2.1,1.4,3.1,2.1c3.1,2.1,5.9,4.1,8.8,6.5
		c30.3,11.7,55.8,35,76.2,60.3c2.6,3.4,5.3,6.6,7.9,10c1.6,1.3,3.3,2.7,4.9,3.9c33.8,15.2,66.8,32,99.6,48.7
		c23.7,4.1,44.5,12.7,62.9,29.9c0.7,0.6,1.2,1,1.9,1.6c3.5-0.5,7.2-0.7,10.7-0.9c0.5-0.2,0.9-0.4,1.4-0.8c-0.8-0.1-1.5-0.5-2-0.6
		c-8.5-3-2.8-15.7,5.8-12.8c5,1.6,10.2,2.1,15.6,2.2c2-1.3,4.1-2.5,5.9-4.1c0.6-1.7,0.6-3.7,0.6-5.7c-2.1-1.6-4.2-3.3-6.3-4.8
		c-1.2-0.7-2.7-1.4-3.9-2.2c-34.8-3.7-70.6-11.3-98.2-32.6c-5.5-1.9-10.9-4.4-16.3-7.1c-10.3-5.1-19.4-11-28.1-17.5
		c-15.3-6.7-24.9-22.7-38.6-32.9c-13.7-9.9-21.3-17.7-22.1-32.4c-1.9-2.4-3.7-4.5-5.8-7c-15-3.4-26.8-13-39.9-21.5
		c-4.8-3.1-2.9-8.7,1.2-10.9c0-0.3,0.1-0.8,0.5-0.9c0.5-1.2,1.7-2.4,2.9-3.3c-0.3,0-0.2-0.3-0.4-0.4c10.9-2.5,21.6-6.1,32-10
		c17.7-6.7,34.6-15.1,51-24.7c4.9-3,9.6-5.9,14.7-9c2.1,1.2,4.7,2.6,6.8,4c0.9,0.7,1.6,1.3,2.6,2c29.5,5.7,56.9,18.1,83.5,31.4
		c9.5,3.1,18.7,7.2,28,11.6c22.5,5.9,43.3,18.6,66.8,20.2c15.1,1.1,30.4-0.4,45.4-1.5c9.1-2.5,18.6-3.4,28-3.2
		c9.4-1.1,18.8-1.5,27.8-0.3c0.5-0.2,1-0.1,1.4-0.3c1.3-3.2,4.6-5.3,8.2-2.9c3.6,2.2,7,4.3,10.7,6.2c0.7,0.4,1.5,0.7,2.4,1.2
		c17.8,5.8,36.4,17,51.4,30.9c1.5,0.7,2.9,1.5,4.4,2.3c0.3-0.2,0.4-0.4,0.6-0.7c11.6,8.2,23,16.6,34.6,25.1c1.5,1,2.9,1.5,4.2,1.5
		C2290.8,680.9,2289.6,678.2,2288.6,676.3z"/>
</g>
<g>
	<g>
		<g>
			
				<radialGradient id="SVGID_3_" cx="1633.584" cy="1298.7872" r="14.4844" gradientTransform="matrix(-0.8547 -0.5192 -0.5192 0.8547 3392.1248 512.1248)" gradientUnits="userSpaceOnUse">
				<stop  offset="0" style="stop-color:#FFA4BF"/>
				<stop  offset="0.6886" style="stop-color:#FFA2BF"/>
				<stop  offset="0.9364" style="stop-color:#FF9BBF"/>
				<stop  offset="1" style="stop-color:#FF98BF"/>
			</radialGradient>
			<path class="st2" d="M1316.7,782l-0.6,10.2c3.8-1.4,8.2-5.5,11.5-11c5.2-8.6,3.6-23,3.6-23s-13.6,5.1-18.7,13.7
				c-3.4,5.5-4.9,11.2-4.5,15.3L1316.7,782z"/>
			
				<radialGradient id="SVGID_4_" cx="1633.6014" cy="1248.5859" r="14.493" gradientTransform="matrix(-0.8547 -0.5192 -0.5192 0.8547 3392.1248 512.1248)" gradientUnits="userSpaceOnUse">
				<stop  offset="0" style="stop-color:#FFA4BF"/>
				<stop  offset="0.6886" style="stop-color:#FFA2BF"/>
				<stop  offset="0.9364" style="stop-color:#FF9BBF"/>
				<stop  offset="1" style="stop-color:#FF98BF"/>
			</radialGradient>
			<path class="st3" d="M1352.6,723.1l0.6-10.2c-3.8,1.4-8.2,5.5-11.5,11c-5.2,8.6-3.6,23-3.6,23s13.6-5.1,18.7-13.7
				c3.4-5.5,4.9-11.2,4.5-15.3L1352.6,723.1z"/>
		</g>
	</g>
	<g>
		<g>
			
				<radialGradient id="SVGID_5_" cx="1577.8308" cy="1334.9895" r="14.4729" gradientTransform="matrix(-0.2372 -0.9714 -0.9714 0.2372 2981.3179 1974.5492)" gradientUnits="userSpaceOnUse">
				<stop  offset="0" style="stop-color:#FFA4BF"/>
				<stop  offset="0.6886" style="stop-color:#FFA2BF"/>
				<stop  offset="0.9364" style="stop-color:#FF9BBF"/>
				<stop  offset="1" style="stop-color:#FF98BF"/>
			</radialGradient>
			<path class="st4" d="M1301.2,760.7l-7.8,6.8c3.8,1.6,9.6,1.8,15.9,0.4c9.8-2.4,18.8-13.7,18.8-13.7s-13.2-6-23-3.5
				c-6.2,1.5-11.3,4.5-14,7.7L1301.2,760.7z"/>
			
				<radialGradient id="SVGID_6_" cx="1577.8445" cy="1284.6964" r="14.4594" gradientTransform="matrix(-0.2372 -0.9714 -0.9714 0.2372 2981.3179 1974.5492)" gradientUnits="userSpaceOnUse">
				<stop  offset="0" style="stop-color:#FFA4BF"/>
				<stop  offset="0.6886" style="stop-color:#FFA2BF"/>
				<stop  offset="0.9364" style="stop-color:#FF9BBF"/>
				<stop  offset="1" style="stop-color:#FF98BF"/>
			</radialGradient>
			<path class="st5" d="M1368.2,744.4l7.8-6.8c-3.8-1.6-9.6-1.8-15.9-0.4c-9.8,2.4-18.8,13.7-18.8,13.7s13.2,6,23,3.5
				c6.2-1.5,11.3-4.5,14-7.7L1368.2,744.4z"/>
		</g>
	</g>
	<g>
		<g>
			
				<radialGradient id="SVGID_7_" cx="1512.8544" cy="1321.058" r="14.4532" gradientTransform="matrix(0.5192 -0.8547 -0.8547 -0.5192 1656.7179 2718.3337)" gradientUnits="userSpaceOnUse">
				<stop  offset="0" style="stop-color:#FFA4BF"/>
				<stop  offset="0.6886" style="stop-color:#FFA2BF"/>
				<stop  offset="0.9364" style="stop-color:#FF9BBF"/>
				<stop  offset="1" style="stop-color:#FF98BF"/>
			</radialGradient>
			<path class="st6" d="M1305.2,734.6l-10.2-0.6c1.4,3.8,5.5,8.2,11,11.5c8.6,5.2,23,3.6,23,3.6s-5.1-13.6-13.7-18.7
				c-5.5-3.4-11.2-4.9-15.3-4.5L1305.2,734.6z"/>
			
				<radialGradient id="SVGID_8_" cx="1512.8521" cy="1270.8068" r="14.4214" gradientTransform="matrix(0.5192 -0.8547 -0.8547 -0.5192 1656.7179 2718.3337)" gradientUnits="userSpaceOnUse">
				<stop  offset="0" style="stop-color:#FFA4BF"/>
				<stop  offset="0.6886" style="stop-color:#FFA2BF"/>
				<stop  offset="0.9364" style="stop-color:#FF9BBF"/>
				<stop  offset="1" style="stop-color:#FF98BF"/>
			</radialGradient>
			<path class="st7" d="M1364.2,770.4l10.2,0.6c-1.4-3.8-5.5-8.2-11-11.5c-8.6-5.2-23-3.6-23-3.6s5.1,13.6,13.7,18.7
				c5.5,3.4,11.2,4.9,15.3,4.5L1364.2,770.4z"/>
		</g>
	</g>
	<g>
		<g>
			
				<radialGradient id="SVGID_9_" cx="1476.7089" cy="1265.3348" r="14.4678" gradientTransform="matrix(0.9714 -0.2372 -0.2372 -0.9714 194.2934 2307.5266)" gradientUnits="userSpaceOnUse">
				<stop  offset="0" style="stop-color:#FFA4BF"/>
				<stop  offset="0.6886" style="stop-color:#FFA2BF"/>
				<stop  offset="0.9364" style="stop-color:#FF9BBF"/>
				<stop  offset="1" style="stop-color:#FF98BF"/>
			</radialGradient>
			<path class="st8" d="M1326.5,719l-6.8-7.8c-1.6,3.8-1.8,9.6-0.4,15.9c2.4,9.8,13.7,18.8,13.7,18.8s6-13.2,3.5-23
				c-1.5-6.2-4.5-11.3-7.7-14L1326.5,719z"/>
			
				<radialGradient id="SVGID_10_" cx="1476.7039" cy="1214.9973" r="14.4894" gradientTransform="matrix(0.9714 -0.2372 -0.2372 -0.9714 194.2934 2307.5266)" gradientUnits="userSpaceOnUse">
				<stop  offset="0" style="stop-color:#FFA4BF"/>
				<stop  offset="0.6886" style="stop-color:#FFA2BF"/>
				<stop  offset="0.9364" style="stop-color:#FF9BBF"/>
				<stop  offset="1" style="stop-color:#FF98BF"/>
			</radialGradient>
			<path class="st9" d="M1342.8,786l6.8,7.8c1.6-3.8,1.8-9.6,0.4-15.9c-2.4-9.8-13.7-18.8-13.7-18.8s-6,13.2-3.5,23
				c1.5,6.2,4.5,11.3,7.7,14L1342.8,786z"/>
		</g>
	</g>
</g>
<g>
	<g>
		<g>
			
				<radialGradient id="SVGID_11_" cx="1918.4056" cy="863.9375" r="21.2732" gradientTransform="matrix(-0.8547 -0.5192 -0.5192 0.8547 3686.6062 710.5204)" gradientUnits="userSpaceOnUse">
				<stop  offset="0" style="stop-color:#FFA4BF"/>
				<stop  offset="0.6886" style="stop-color:#FFA2BF"/>
				<stop  offset="0.9364" style="stop-color:#FF9BBF"/>
				<stop  offset="1" style="stop-color:#FF98BF"/>
			</radialGradient>
			<path class="st10" d="M1591.3,464.6l-1.1,15.1c5.6-2.2,11.8-8.1,16.8-16c7.6-12.8,5.4-33.8,5.4-33.8s-20,7.6-27.5,20.2
				c-5.1,8.2-7.1,16.6-6.5,22.5L1591.3,464.6z"/>
			
				<radialGradient id="SVGID_12_" cx="1918.4136" cy="790.0231" r="21.2707" gradientTransform="matrix(-0.8547 -0.5192 -0.5192 0.8547 3686.6062 710.5204)" gradientUnits="userSpaceOnUse">
				<stop  offset="0" style="stop-color:#FFA4BF"/>
				<stop  offset="0.6886" style="stop-color:#FFA2BF"/>
				<stop  offset="0.9364" style="stop-color:#FF9BBF"/>
				<stop  offset="1" style="stop-color:#FF98BF"/>
			</radialGradient>
			<path class="st11" d="M1644,377.9l1.1-15.1c-5.6,2.2-11.8,8.1-16.8,16c-7.6,12.8-5.4,33.8-5.4,33.8s20-7.6,27.5-20.2
				c5.1-8.2,7.1-16.6,6.5-22.5L1644,377.9z"/>
		</g>
	</g>
	<g>
		<g>
			
				<radialGradient id="SVGID_13_" cx="2088.1641" cy="1085.3976" r="21.2951" gradientTransform="matrix(-0.2372 -0.9714 -0.9714 0.2372 3131.4387 2201.0876)" gradientUnits="userSpaceOnUse">
				<stop  offset="0" style="stop-color:#FFA4BF"/>
				<stop  offset="0.6886" style="stop-color:#FFA2BF"/>
				<stop  offset="0.9364" style="stop-color:#FF9BBF"/>
				<stop  offset="1" style="stop-color:#FF98BF"/>
			</radialGradient>
			<path class="st12" d="M1568.6,433.2l-11.4,10c5.4,2.5,14.1,2.8,23.4,0.6c14.3-3.5,27.5-20.2,27.5-20.2s-19.5-8.7-33.8-5.1
				c-9.4,2.2-16.6,6.6-20.5,11.3L1568.6,433.2z"/>
			
				<radialGradient id="SVGID_14_" cx="2088.1641" cy="1011.5213" r="21.2707" gradientTransform="matrix(-0.2372 -0.9714 -0.9714 0.2372 3131.4387 2201.0876)" gradientUnits="userSpaceOnUse">
				<stop  offset="0" style="stop-color:#FFA4BF"/>
				<stop  offset="0.6886" style="stop-color:#FFA2BF"/>
				<stop  offset="0.9364" style="stop-color:#FF9BBF"/>
				<stop  offset="1" style="stop-color:#FF98BF"/>
			</radialGradient>
			<path class="st13" d="M1667,409.3l11.4-10c-5.4-2.5-14.1-2.8-23.4-0.6c-14.3,3.5-27.5,20.2-27.5,20.2s19.5,8.7,33.8,5.1
				c9.4-2.2,16.6-6.6,20.5-11.3L1667,409.3z"/>
		</g>
	</g>
	<g>
		<g>
			
				<radialGradient id="SVGID_15_" cx="2051.6794" cy="1362.0133" r="21.2909" gradientTransform="matrix(0.5192 -0.8547 -0.8547 -0.5192 1684.8607 2862.6941)" gradientUnits="userSpaceOnUse">
				<stop  offset="0" style="stop-color:#FFA4BF"/>
				<stop  offset="0.6886" style="stop-color:#FFA2BF"/>
				<stop  offset="0.9364" style="stop-color:#FF9BBF"/>
				<stop  offset="1" style="stop-color:#FF98BF"/>
			</radialGradient>
			<path class="st14" d="M1574.4,395l-15.1-1.1c2.2,5.6,8.1,11.8,16,16.8c12.8,7.6,33.8,5.4,33.8,5.4s-7.6-20-20.2-27.5
				c-8.2-5.1-16.6-7.1-22.5-6.5L1574.4,395z"/>
			
				<radialGradient id="SVGID_16_" cx="2051.6726" cy="1288.0736" r="21.2887" gradientTransform="matrix(0.5192 -0.8547 -0.8547 -0.5192 1684.8607 2862.6941)" gradientUnits="userSpaceOnUse">
				<stop  offset="0" style="stop-color:#FFA4BF"/>
				<stop  offset="0.6886" style="stop-color:#FFA2BF"/>
				<stop  offset="0.9364" style="stop-color:#FF9BBF"/>
				<stop  offset="1" style="stop-color:#FF98BF"/>
			</radialGradient>
			<path class="st15" d="M1660.9,447.5l15.1,1.1c-2.2-5.6-8.1-11.8-16-16.8c-12.8-7.6-33.8-5.4-33.8-5.4s7.6,20,20.2,27.5
				c8.2,5.1,16.6,7.1,22.5,6.5L1660.9,447.5z"/>
		</g>
	</g>
	<g>
		<g>
			
				<radialGradient id="SVGID_17_" cx="1830.2189" cy="1531.973" r="21.2061" gradientTransform="matrix(0.9714 -0.2372 -0.2372 -0.9714 194.2934 2307.5266)" gradientUnits="userSpaceOnUse">
				<stop  offset="0" style="stop-color:#FFA4BF"/>
				<stop  offset="0.6886" style="stop-color:#FFA2BF"/>
				<stop  offset="0.9364" style="stop-color:#FF9BBF"/>
				<stop  offset="1" style="stop-color:#FF98BF"/>
			</radialGradient>
			<path class="st16" d="M1605.6,372l-10-11.4c-2.5,5.4-2.8,14.1-0.6,23.4c3.5,14.3,20.2,27.5,20.2,27.5s8.7-19.5,5.1-33.8
				c-2.2-9.4-6.6-16.6-11.3-20.5L1605.6,372z"/>
			
				<radialGradient id="SVGID_18_" cx="1830.2189" cy="1457.9775" r="21.2707" gradientTransform="matrix(0.9714 -0.2372 -0.2372 -0.9714 194.2934 2307.5266)" gradientUnits="userSpaceOnUse">
				<stop  offset="0" style="stop-color:#FFA4BF"/>
				<stop  offset="0.6886" style="stop-color:#FFA2BF"/>
				<stop  offset="0.9364" style="stop-color:#FF9BBF"/>
				<stop  offset="1" style="stop-color:#FF98BF"/>
			</radialGradient>
			<path class="st17" d="M1629.7,470.5l10,11.4c2.5-5.4,2.8-14.1,0.6-23.4c-3.5-14.3-20.2-27.5-20.2-27.5s-8.7,19.5-5.1,33.8
				c2.2,9.4,6.6,16.6,11.3,20.5L1629.7,470.5z"/>
		</g>
	</g>
</g>
<g>
	<g>
		<g>
			
				<radialGradient id="SVGID_19_" cx="1588.2098" cy="899.24" r="34.8693" gradientTransform="matrix(-0.8547 -0.5192 -0.5192 0.8547 3650.7629 1241.5854)" gradientUnits="userSpaceOnUse">
				<stop  offset="0" style="stop-color:#FFA4BF"/>
				<stop  offset="0.6886" style="stop-color:#FFA2BF"/>
				<stop  offset="0.9364" style="stop-color:#FF9BBF"/>
				<stop  offset="1" style="stop-color:#FF98BF"/>
			</radialGradient>
			<path class="st18" d="M1814.7,1204.8l-1.6,24.9c9.1-3.6,19.5-13.3,27.7-26.5c12.5-20.7,8.6-55.4,8.6-55.4s-32.7,12.5-45.2,33.2
				c-8.2,13.3-11.7,27-11,36.8L1814.7,1204.8z"/>
			
				<radialGradient id="SVGID_20_" cx="1588.1851" cy="778.0481" r="34.8768" gradientTransform="matrix(-0.8547 -0.5192 -0.5192 0.8547 3650.7629 1241.5854)" gradientUnits="userSpaceOnUse">
				<stop  offset="0" style="stop-color:#FFA4BF"/>
				<stop  offset="0.6886" style="stop-color:#FFA2BF"/>
				<stop  offset="0.9364" style="stop-color:#FF9BBF"/>
				<stop  offset="1" style="stop-color:#FF98BF"/>
			</radialGradient>
			<path class="st19" d="M1901.2,1062.6l1.6-24.9c-9.1,3.6-19.5,13.3-27.7,26.5c-12.5,20.7-8.6,55.4-8.6,55.4s32.7-12.5,45.2-33.2
				c8.2-13.3,11.7-27,11-36.8L1901.2,1062.6z"/>
		</g>
	</g>
	<g>
		<g>
			
				<radialGradient id="SVGID_21_" cx="1650.7499" cy="782.4047" r="34.871" gradientTransform="matrix(-0.2372 -0.9714 -0.9714 0.2372 2950.5483 2566.1091)" gradientUnits="userSpaceOnUse">
				<stop  offset="0" style="stop-color:#FFA4BF"/>
				<stop  offset="0.6886" style="stop-color:#FFA2BF"/>
				<stop  offset="0.9364" style="stop-color:#FF9BBF"/>
				<stop  offset="1" style="stop-color:#FF98BF"/>
			</radialGradient>
			<path class="st20" d="M1777.2,1153.3l-18.7,16.4c8.9,3.8,23.4,4.5,38.4,0.9c23.6-5.7,45.2-33,45.2-33s-31.8-14.3-55.5-8.4
				c-15.2,3.7-27.3,10.7-33.6,18.4L1777.2,1153.3z"/>
			
				<radialGradient id="SVGID_22_" cx="1650.6796" cy="661.143" r="34.883" gradientTransform="matrix(-0.2372 -0.9714 -0.9714 0.2372 2950.5483 2566.1091)" gradientUnits="userSpaceOnUse">
				<stop  offset="0" style="stop-color:#FFA4BF"/>
				<stop  offset="0.6886" style="stop-color:#FFA2BF"/>
				<stop  offset="0.9364" style="stop-color:#FF9BBF"/>
				<stop  offset="1" style="stop-color:#FF98BF"/>
			</radialGradient>
			<path class="st21" d="M1938.7,1114.1l18.7-16.4c-8.9-3.8-23.4-4.5-38.4-0.9c-23.6,5.7-45.2,33-45.2,33s31.8,14.3,55.5,8.4
				c15.2-3.7,27.3-10.7,33.6-18.4L1938.7,1114.1z"/>
		</g>
	</g>
	<g>
		<g>
			
				<radialGradient id="SVGID_23_" cx="1777.7023" cy="743.7225" r="34.8756" gradientTransform="matrix(0.5192 -0.8547 -0.8547 -0.5192 1518.8171 3007.7412)" gradientUnits="userSpaceOnUse">
				<stop  offset="0" style="stop-color:#FFA4BF"/>
				<stop  offset="0.6886" style="stop-color:#FFA2BF"/>
				<stop  offset="0.9364" style="stop-color:#FF9BBF"/>
				<stop  offset="1" style="stop-color:#FF98BF"/>
			</radialGradient>
			<path class="st22" d="M1787,1090.7l-24.9-1.6c3.6,9.1,13.3,19.5,26.5,27.7c20.7,12.5,55.4,8.6,55.4,8.6s-12.5-32.7-33.2-45.2
				c-13.3-8.2-27-11.7-36.8-11L1787,1090.7z"/>
			
				<radialGradient id="SVGID_24_" cx="1777.6632" cy="622.4086" r="34.9653" gradientTransform="matrix(0.5192 -0.8547 -0.8547 -0.5192 1518.8171 3007.7412)" gradientUnits="userSpaceOnUse">
				<stop  offset="0" style="stop-color:#FFA4BF"/>
				<stop  offset="0.6886" style="stop-color:#FFA2BF"/>
				<stop  offset="0.9364" style="stop-color:#FF9BBF"/>
				<stop  offset="1" style="stop-color:#FF98BF"/>
			</radialGradient>
			<path class="st23" d="M1928.9,1176.9l24.9,1.6c-3.6-9.1-13.3-19.5-26.5-27.7c-20.7-12.5-55.4-8.6-55.4-8.6s12.5,32.7,33.2,45.2
				c13.3,8.2,27,11.7,36.8,11L1928.9,1176.9z"/>
		</g>
	</g>
	<g>
		<g>
			
				<radialGradient id="SVGID_25_" cx="1894.6876" cy="806.2692" r="34.9344" gradientTransform="matrix(0.9714 -0.2372 -0.2372 -0.9714 194.2934 2307.5266)" gradientUnits="userSpaceOnUse">
				<stop  offset="0" style="stop-color:#FFA4BF"/>
				<stop  offset="0.6886" style="stop-color:#FFA2BF"/>
				<stop  offset="0.9364" style="stop-color:#FF9BBF"/>
				<stop  offset="1" style="stop-color:#FF98BF"/>
			</radialGradient>
			<path class="st24" d="M1838.2,1053.2l-16.4-18.7c-3.8,8.9-4.5,23.4-0.9,38.4c5.7,23.6,33,45.2,33,45.2s14.3-31.8,8.4-55.5
				c-3.7-15.2-10.7-27.3-18.4-33.6L1838.2,1053.2z"/>
			
				<radialGradient id="SVGID_26_" cx="1894.6876" cy="685.1694" r="34.8756" gradientTransform="matrix(0.9714 -0.2372 -0.2372 -0.9714 194.2934 2307.5266)" gradientUnits="userSpaceOnUse">
				<stop  offset="0" style="stop-color:#FFA4BF"/>
				<stop  offset="0.6886" style="stop-color:#FFA2BF"/>
				<stop  offset="0.9364" style="stop-color:#FF9BBF"/>
				<stop  offset="1" style="stop-color:#FF98BF"/>
			</radialGradient>
			<path class="st25" d="M1877.7,1214.3l16.4,18.7c3.8-8.9,4.5-23.4,0.9-38.4c-5.7-23.6-33-45.2-33-45.2s-14.3,31.8-8.4,55.5
				c3.7,15.2,10.7,27.3,18.4,33.6L1877.7,1214.3z"/>
		</g>
	</g>
</g>
<g>
	<g>
		<g>
			
				<radialGradient id="SVGID_27_" cx="2922.4365" cy="1796.3477" r="14.096" gradientTransform="matrix(-0.8547 -0.5192 -0.5192 0.8547 3650.7629 1241.5854)" gradientUnits="userSpaceOnUse">
				<stop  offset="0" style="stop-color:#FFA4BF"/>
				<stop  offset="0.6886" style="stop-color:#FFA2BF"/>
				<stop  offset="0.9364" style="stop-color:#FF9BBF"/>
				<stop  offset="1" style="stop-color:#FF98BF"/>
			</radialGradient>
			<path class="st26" d="M215.6,1267.2l-0.7,10c3.7-1.4,7.9-5.3,11.2-10.7c5.1-8.4,3.5-22.4,3.5-22.4s-13.2,5.1-18.2,13.4
				c-3.3,5.3-4.8,10.9-4.4,14.9L215.6,1267.2z"/>
			
				<radialGradient id="SVGID_28_" cx="2922.4453" cy="1747.3705" r="14.0934" gradientTransform="matrix(-0.8547 -0.5192 -0.5192 0.8547 3650.7629 1241.5854)" gradientUnits="userSpaceOnUse">
				<stop  offset="0" style="stop-color:#FFA4BF"/>
				<stop  offset="0.6886" style="stop-color:#FFA2BF"/>
				<stop  offset="0.9364" style="stop-color:#FF9BBF"/>
				<stop  offset="1" style="stop-color:#FF98BF"/>
			</radialGradient>
			<path class="st27" d="M250.5,1209.8l0.7-10c-3.7,1.4-7.9,5.3-11.2,10.7c-5.1,8.4-3.5,22.4-3.5,22.4s13.2-5.1,18.2-13.4
				c3.3-5.3,4.8-10.9,4.4-14.9L250.5,1209.8z"/>
		</g>
	</g>
	<g>
		<g>
			
				<radialGradient id="SVGID_29_" cx="1934.4186" cy="2349.5432" r="14.0909" gradientTransform="matrix(-0.2372 -0.9714 -0.9714 0.2372 2950.5483 2566.1091)" gradientUnits="userSpaceOnUse">
				<stop  offset="0" style="stop-color:#FFA4BF"/>
				<stop  offset="0.6886" style="stop-color:#FFA2BF"/>
				<stop  offset="0.9364" style="stop-color:#FF9BBF"/>
				<stop  offset="1" style="stop-color:#FF98BF"/>
			</radialGradient>
			<path class="st28" d="M200.4,1246.5l-7.5,6.6c3.6,1.5,9.4,1.8,15.5,0.4c9.6-2.3,18.2-13.3,18.2-13.3s-12.8-5.8-22.4-3.4
				c-6.1,1.5-11,4.3-13.5,7.5L200.4,1246.5z"/>
			
				<radialGradient id="SVGID_30_" cx="1934.3937" cy="2300.5522" r="14.0972" gradientTransform="matrix(-0.2372 -0.9714 -0.9714 0.2372 2950.5483 2566.1091)" gradientUnits="userSpaceOnUse">
				<stop  offset="0" style="stop-color:#FFA4BF"/>
				<stop  offset="0.6886" style="stop-color:#FFA2BF"/>
				<stop  offset="0.9364" style="stop-color:#FF9BBF"/>
				<stop  offset="1" style="stop-color:#FF98BF"/>
			</radialGradient>
			<path class="st29" d="M265.7,1230.6l7.5-6.6c-3.6-1.5-9.4-1.8-15.5-0.4c-9.6,2.3-18.2,13.3-18.2,13.3s12.8,5.8,22.4,3.4
				c6.1-1.5,11-4.3,13.5-7.5L265.7,1230.6z"/>
		</g>
	</g>
	<g>
		<g>
			
				<radialGradient id="SVGID_31_" cx="844.4868" cy="2041.896" r="14.0943" gradientTransform="matrix(0.5192 -0.8547 -0.8547 -0.5192 1518.8171 3007.7412)" gradientUnits="userSpaceOnUse">
				<stop  offset="0" style="stop-color:#FFA4BF"/>
				<stop  offset="0.6886" style="stop-color:#FFA2BF"/>
				<stop  offset="0.9364" style="stop-color:#FF9BBF"/>
				<stop  offset="1" style="stop-color:#FF98BF"/>
			</radialGradient>
			<path class="st30" d="M204.4,1221.1l-10-0.7c1.4,3.7,5.3,7.9,10.7,11.2c8.4,5.1,22.4,3.5,22.4,3.5s-5.1-13.2-13.4-18.2
				c-5.3-3.3-10.9-4.8-14.9-4.4L204.4,1221.1z"/>
			
				<radialGradient id="SVGID_32_" cx="844.4868" cy="1992.9065" r="14.102" gradientTransform="matrix(0.5192 -0.8547 -0.8547 -0.5192 1518.8171 3007.7412)" gradientUnits="userSpaceOnUse">
				<stop  offset="0" style="stop-color:#FFA4BF"/>
				<stop  offset="0.6886" style="stop-color:#FFA2BF"/>
				<stop  offset="0.9364" style="stop-color:#FF9BBF"/>
				<stop  offset="1" style="stop-color:#FF98BF"/>
			</radialGradient>
			<path class="st31" d="M261.8,1255.9l10,0.7c-1.4-3.7-5.3-7.9-10.7-11.2c-8.4-5.1-22.4-3.5-22.4-3.5s5.1,13.2,13.4,18.2
				c5.3,3.3,10.9,4.8,14.9,4.4L261.8,1255.9z"/>
		</g>
	</g>
	<g>
		<g>
			
				<radialGradient id="SVGID_33_" cx="291.3077" cy="1053.8114" r="14.1262" gradientTransform="matrix(0.9714 -0.2372 -0.2372 -0.9714 194.2934 2307.5266)" gradientUnits="userSpaceOnUse">
				<stop  offset="0" style="stop-color:#FFA4BF"/>
				<stop  offset="0.6886" style="stop-color:#FFA2BF"/>
				<stop  offset="0.9364" style="stop-color:#FF9BBF"/>
				<stop  offset="1" style="stop-color:#FF98BF"/>
			</radialGradient>
			<path class="st32" d="M225.1,1206l-6.6-7.5c-1.5,3.6-1.8,9.4-0.4,15.5c2.3,9.6,13.3,18.2,13.3,18.2s5.8-12.8,3.4-22.4
				c-1.5-6.1-4.3-11-7.5-13.5L225.1,1206z"/>
			
				<radialGradient id="SVGID_34_" cx="291.3077" cy="1004.8842" r="14.0943" gradientTransform="matrix(0.9714 -0.2372 -0.2372 -0.9714 194.2934 2307.5266)" gradientUnits="userSpaceOnUse">
				<stop  offset="0" style="stop-color:#FFA4BF"/>
				<stop  offset="0.6886" style="stop-color:#FFA2BF"/>
				<stop  offset="0.9364" style="stop-color:#FF9BBF"/>
				<stop  offset="1" style="stop-color:#FF98BF"/>
			</radialGradient>
			<path class="st33" d="M241,1271.1l6.6,7.5c1.5-3.6,1.8-9.4,0.4-15.5c-2.3-9.6-13.3-18.2-13.3-18.2s-5.8,12.8-3.4,22.4
				c1.5,6.1,4.3,11,7.5,13.5L241,1271.1z"/>
		</g>
	</g>
</g>
</svg>
